STARTFONT 2.1
FONT -tekuplus-gothic-medium-R-normal--12-120-75-75-C-120-unicode.1990-0
SIZE 13 75 75
FONTBOUNDINGBOX 12 13 0 -2
STARTPROPERTIES 23
FONTNAME_REGISTRY ""
FOUNDRY "tekuplus"
FAMILY_NAME "gothic"
WEIGHT_NAME "medium"
SLANT "R"
SETWIDTH_NAME "normal"
ADD_STYLE_NAME ""
PIXEL_SIZE 12
POINT_SIZE 120
RESOLUTION_X 75
RESOLUTION_Y 75
SPACING "C"
AVERAGE_WIDTH 120
CHARSET_REGISTRY "unicode.1990"
CHARSET_ENCODING "0"
COPYRIGHT "Copyright (C) 2022-2024 itouhiro"
WEIGHT 10
X_HEIGHT 11
QUAD_WIDTH 12
DEFAULT_CHAR 8760
FONT_DESCENT 2
FONT_ASCENT 11
ENDPROPERTIES
CHARS 49
STARTCHAR 0x30FF
ENCODING 8760
SWIDTH 886 0
DWIDTH 12 0
BBX 12 13 0 -2
BITMAP
0000
0000
3fc0
0040
0040
0040
0040
0040
0040
0040
0040
0000
0000
ENDCHAR
STARTCHAR 0x303C
ENCODING 8759
SWIDTH 886 0
DWIDTH 12 0
BBX 12 13 0 -2
BITMAP
0000
0000
7fc0
40c0
4140
4240
4440
4840
5040
6040
7fc0
0000
0000
ENDCHAR
STARTCHAR 0x25B7
ENCODING 8993
SWIDTH 886 0
DWIDTH 12 0
BBX 12 13 0 -2
BITMAP
0000
0000
6000
5800
4600
4180
4040
4180
4600
5800
6000
0000
0000
ENDCHAR
STARTCHAR 0x25B6
ENCODING 8994
SWIDTH 886 0
DWIDTH 12 0
BBX 12 13 0 -2
BITMAP
0000
0000
6000
7800
7e00
7f80
7fc0
7f80
7e00
7800
6000
0000
0000
ENDCHAR
STARTCHAR 0x25C1
ENCODING 8995
SWIDTH 886 0
DWIDTH 12 0
BBX 12 13 0 -2
BITMAP
0000
0000
00c0
0340
0c40
3040
4040
3040
0c40
0340
00c0
0000
0000
ENDCHAR
STARTCHAR 0x25C0
ENCODING 8996
SWIDTH 886 0
DWIDTH 12 0
BBX 12 13 0 -2
BITMAP
0000
0000
00c0
03c0
0fc0
3fc0
7fc0
3fc0
0fc0
03c0
00c0
0000
0000
ENDCHAR
STARTCHAR 0x2664
ENCODING 9785
SWIDTH 886 0
DWIDTH 12 0
BBX 12 13 0 -2
BITMAP
0000
0400
0a00
1100
2080
4040
4040
4a40
3b80
0a00
1f00
0000
0000
ENDCHAR
STARTCHAR 0x2660
ENCODING 9786
SWIDTH 886 0
DWIDTH 12 0
BBX 12 13 0 -2
BITMAP
0000
0400
0e00
1f00
3f80
7fc0
7fc0
7fc0
3580
0400
1f00
0000
0000
ENDCHAR
STARTCHAR 0x2662
ENCODING 9787
SWIDTH 886 0
DWIDTH 12 0
BBX 12 13 0 -2
BITMAP
0000
0400
0a00
1100
2080
4040
4040
2080
1100
0a00
0400
0000
0000
ENDCHAR
STARTCHAR 0x2666
ENCODING 9788
SWIDTH 886 0
DWIDTH 12 0
BBX 12 13 0 -2
BITMAP
0000
0400
0e00
1f00
3f80
7fc0
7fc0
3f80
1f00
0e00
0400
0000
0000
ENDCHAR
STARTCHAR 0x2661
ENCODING 9789
SWIDTH 886 0
DWIDTH 12 0
BBX 12 13 0 -2
BITMAP
0000
0000
0000
3b80
4440
4040
4040
2080
1100
0a00
0400
0000
0000
ENDCHAR
STARTCHAR 0x2665
ENCODING 9790
SWIDTH 886 0
DWIDTH 12 0
BBX 12 13 0 -2
BITMAP
0000
0000
0000
3b80
7fc0
7fc0
7fc0
3f80
1f00
0e00
0400
0000
0000
ENDCHAR
STARTCHAR 0x2667
ENCODING 9791
SWIDTH 886 0
DWIDTH 12 0
BBX 12 13 0 -2
BITMAP
0000
0e00
1100
1100
3b80
4040
4040
4a40
3b80
0a00
1f00
0000
0000
ENDCHAR
STARTCHAR 0x2663
ENCODING 9792
SWIDTH 886 0
DWIDTH 12 0
BBX 12 13 0 -2
BITMAP
0000
0e00
1f00
1f00
0e00
3f80
7fc0
7fc0
3580
0400
1f00
0000
0000
ENDCHAR
STARTCHAR 0x2600
ENCODING 9832
SWIDTH 886 0
DWIDTH 12 0
BBX 12 13 0 -2
BITMAP
0000
0000
0400
2080
0e00
1f00
5f40
1f00
0e00
2080
0400
0000
0000
ENDCHAR
STARTCHAR 0x3020
ENCODING 9830
SWIDTH 886 0
DWIDTH 12 0
BBX 12 13 0 -2
BITMAP
0000
3f80
0000
3f80
0400
4440
5540
4040
4e40
2080
1f00
0000
0000
ENDCHAR
STARTCHAR 0x2668
ENCODING 9836
SWIDTH 886 0
DWIDTH 12 0
BBX 12 13 0 -2
BITMAP
0000
0000
0900
1200
1200
0900
0900
5240
4040
2080
1f00
0000
0000
ENDCHAR
STARTCHAR 0x2602
ENCODING 9834
SWIDTH 886 0
DWIDTH 12 0
BBX 12 13 0 -2
BITMAP
0000
0080
0f00
3f80
7f80
1fc0
07c0
05c0
0840
4800
3000
0000
0000
ENDCHAR
STARTCHAR 0x2197
ENCODING 8993
SWIDTH 886 0
DWIDTH 12 0
BBX 12 13 0 -2
BITMAP
0000
0000
03c0
00c0
0140
0240
0400
0800
1000
2000
4000
0000
0000
ENDCHAR
STARTCHAR 0x2198
ENCODING 8994
SWIDTH 886 0
DWIDTH 12 0
BBX 12 13 0 -2
BITMAP
0000
0000
4000
2000
1000
0800
0400
0240
0140
00c0
03c0
0000
0000
ENDCHAR
STARTCHAR 0x2196
ENCODING 8995
SWIDTH 886 0
DWIDTH 12 0
BBX 12 13 0 -2
BITMAP
0000
0000
7800
6000
5000
4800
0400
0200
0100
0080
0040
0000
0000
ENDCHAR
STARTCHAR 0x2199
ENCODING 8996
SWIDTH 886 0
DWIDTH 12 0
BBX 12 13 0 -2
BITMAP
0000
0000
0040
0080
0100
0200
0400
4800
5000
6000
7800
0000
0000
ENDCHAR
STARTCHAR 0x21C4
ENCODING 8993
SWIDTH 886 0
DWIDTH 12 0
BBX 12 13 0 -2
BITMAP
0000
0000
0100
0080
3fc0
0080
1100
2000
7f80
2000
1000
0000
0000
ENDCHAR
STARTCHAR 0x21E8
ENCODING 8994
SWIDTH 886 0
DWIDTH 12 0
BBX 12 13 0 -2
BITMAP
0000
0000
0c00
0a00
7900
4080
4040
4080
7900
0a00
0c00
0000
0000
ENDCHAR
STARTCHAR 0x21E6
ENCODING 8995
SWIDTH 886 0
DWIDTH 12 0
BBX 12 13 0 -2
BITMAP
0000
0000
0600
0a00
13c0
2040
4040
2040
13c0
0a00
0600
0000
0000
ENDCHAR
STARTCHAR 0x21E7
ENCODING 8996
SWIDTH 886 0
DWIDTH 12 0
BBX 12 13 0 -2
BITMAP
0000
0400
0a00
1100
2080
4040
71c0
1100
1100
1100
1f00
0000
0000
ENDCHAR
STARTCHAR 0x21E9
ENCODING 8993
SWIDTH 886 0
DWIDTH 12 0
BBX 12 13 0 -2
BITMAP
0000
1f00
1100
1100
1100
71c0
4040
2080
1100
0a00
0400
0000
0000
ENDCHAR
STARTCHAR 0x2616
ENCODING 9750
SWIDTH 886 0
DWIDTH 12 0
BBX 12 13 0 -2
BITMAP
0000
0000
1f00
2080
4040
4040
4040
4040
4040
4040
7fc0
0000
0000
ENDCHAR
STARTCHAR 0x2617
ENCODING 9751
SWIDTH 886 0
DWIDTH 12 0
BBX 12 13 0 -2
BITMAP
0000
0000
1f00
3f80
7fc0
7fc0
7fc0
7fc0
7fc0
7fc0
7fc0
0000
0000
ENDCHAR
STARTCHAR 0x260E
ENCODING 8996
SWIDTH 886 0
DWIDTH 12 0
BBX 12 13 0 -2
BITMAP
0000
0000
3f80
7fc0
6ac0
0e00
1300
2180
61c0
73c0
7fc0
0000
0000
ENDCHAR
STARTCHAR 0x2601
ENCODING 8993
SWIDTH 886 0
DWIDTH 12 0
BBX 12 13 0 -2
BITMAP
0000
0000
0e00
1100
1080
28a0
4060
4020
4840
2480
1b00
0000
0000
ENDCHAR
STARTCHAR 0x2603
ENCODING 8994
SWIDTH 886 0
DWIDTH 12 0
BBX 12 13 0 -2
BITMAP
0000
0e00
1f00
2080
2a80
2080
5140
4e40
4040
2080
1f00
0000
0000
ENDCHAR
STARTCHAR 0x2713
ENCODING 10003
SWIDTH 886 0
DWIDTH 12 0
BBX 12 13 0 -2
BITMAP
0000
0000
0080
0100
0100
0200
0200
2400
1400
0c00
0800
0000
0000
ENDCHAR
STARTCHAR 0x2318
ENCODING 8984
SWIDTH 886 0
DWIDTH 12 0
BBX 12 13 0 -2
BITMAP
0000
0000
3180
4a40
4a40
3f80
0a00
3f80
4a40
4a40
3180
0000
0000
ENDCHAR
STARTCHAR 0x203C
ENCODING 8993
SWIDTH 886 0
DWIDTH 12 0
BBX 12 13 0 -2
BITMAP
0000
0000
1080
1080
1080
1080
1080
1080
0000
0000
1080
0000
0000
ENDCHAR
STARTCHAR 0x2047
ENCODING 8994
SWIDTH 886 0
DWIDTH 12 0
BBX 12 13 0 -2
BITMAP
0000
0000
3180
4a40
4a40
0840
1080
2100
2100
0000
2100
0000
0000
ENDCHAR
STARTCHAR 0x2048
ENCODING 8995
SWIDTH 886 0
DWIDTH 12 0
BBX 12 13 0 -2
BITMAP
0000
0000
1880
2480
2480
0480
0880
1080
1000
0000
1080
0000
0000
ENDCHAR
STARTCHAR 0x2049
ENCODING 8996
SWIDTH 886 0
DWIDTH 12 0
BBX 12 13 0 -2
BITMAP
0000
0000
1180
1240
1240
1040
1080
1100
0100
0000
1100
0000
0000
ENDCHAR
STARTCHAR 0x2756
ENCODING 8993
SWIDTH 886 0
DWIDTH 12 0
BBX 12 13 0 -2
BITMAP
0000
0000
0400
0e00
0e00
3580
7bc0
3580
0e00
0e00
0400
0000
0000
ENDCHAR
STARTCHAR 0x261E
ENCODING 9758
SWIDTH 886 0
DWIDTH 12 0
BBX 12 13 0 -2
BITMAP
0000
0000
0000
0c00
33f0
c110
8de0
9780
8880
d100
2e00
0000
0000
ENDCHAR
STARTCHAR 0xFE19
ENCODING 8995
SWIDTH 886 0
DWIDTH 12 0
BBX 12 13 0 -2
BITMAP
0000
0600
0600
0000
0000
0600
0600
0000
0000
0600
0600
0000
0000
ENDCHAR
STARTCHAR 0x274E
ENCODING 10062
SWIDTH 886 0
DWIDTH 12 0
BBX 12 13 0 -2
BITMAP
0000
0000
3f80
7fc0
6ec0
75c0
7bc0
75c0
6ec0
7fc0
3f80
0000
0000
ENDCHAR
STARTCHAR 0x29D7
ENCODING 8994
SWIDTH 886 0
DWIDTH 12 0
BBX 12 13 0 -2
BITMAP
0000
0000
3f80
3f80
1f00
0e00
0400
0e00
1f00
3f80
3f80
0000
0000
ENDCHAR
STARTCHAR 0x27A1
ENCODING 8995
SWIDTH 886 0
DWIDTH 12 0
BBX 12 13 0 -2
BITMAP
0000
0000
0400
0600
7f00
7f80
7fc0
7f80
7f00
0600
0400
0000
0000
ENDCHAR
STARTCHAR 0x2B05
ENCODING 8996
SWIDTH 886 0
DWIDTH 12 0
BBX 12 13 0 -2
BITMAP
0000
0000
0400
0c00
1fc0
3fc0
7fc0
3fc0
1fc0
0c00
0400
0000
0000
ENDCHAR
STARTCHAR 0x2B06
ENCODING 8993
SWIDTH 886 0
DWIDTH 12 0
BBX 12 13 0 -2
BITMAP
0000
0000
0400
0e00
1f00
3f80
7fc0
1f00
1f00
1f00
1f00
0000
0000
ENDCHAR
STARTCHAR 0x2B07
ENCODING 8994
SWIDTH 886 0
DWIDTH 12 0
BBX 12 13 0 -2
BITMAP
0000
0000
1f00
1f00
1f00
1f00
7fc0
3f80
1f00
0e00
0400
0000
0000
ENDCHAR
STARTCHAR 0x2611
ENCODING 9745
SWIDTH 886 0
DWIDTH 12 0
BBX 12 13 0 -2
BITMAP
0000
0000
7fc0
40c0
4140
4240
6240
5440
4c40
4840
7fc0
0000
0000
ENDCHAR
STARTCHAR 0x1F17E
ENCODING 127358
SWIDTH 886 0
DWIDTH 12 0
BBX 12 13 0 -2
BITMAP
0000
0000
3f80
7fc0
71c0
6ec0
6ec0
6ec0
71c0
7fc0
3f80
0000
0000
ENDCHAR
ENDFONT
